<svg xmlns="http://www.w3.org/2000/svg" width="430" height="430" fill="none" viewBox="0 0 430 430"><g stroke-linecap="round" stroke-linejoin="round" stroke-width="12"><path stroke="#08a88a" d="M59.22 284.3S7.45 177.88 101.5 88.64c.07-.06 14.81-14.84 14.88-14.9m-51.85 0h51.84m.03 51.84V73.74"/><path stroke="#121331" d="M147.14 59.31s106.08-51.6 195.24 41.84c.2.22 14.92 14.95 15.12 15.16m.2-51.68v51.84m-51.84.03h51.84"/><path stroke="#08a88a" d="M370.78 143.81s51.68 106.21-42 195.41c-.15.14-15 15-15.14 15.15m51.82 0h-51.84m-.03-51.84v51.84"/><path stroke="#121331" d="M284.13 370.69S177.71 422.46 88.47 328.4l-14.9-14.87m0 51.84v-51.84m51.84-.03H73.57"/></g></svg>